<svg xmlns="http://www.w3.org/2000/svg" width="20" height="11" viewBox="0 0 20 11">
  <defs>
    <style>
      .cls-1 {
        fill: #fff;
        fill-rule: evenodd;
      }
    </style>
  </defs>
  <path id="vkontakte" class="cls-1" d="M156.3,253.992a0.977,0.977,0,0,0,.527-0.231,0.845,0.845,0,0,0,.159-0.507,3.248,3.248,0,0,1,.385-1.795c0.526-.526,2.62,1.157,3.32,2.162a2.022,2.022,0,0,0,1.285.376l2.176,0.01s1.335-.083.663-1.176a10.243,10.243,0,0,0-1.982-2.221c-1.619-1.5-1.308-1.26.642-3.859,1.187-1.583,1.631-3.049,1.483-3.463a1.069,1.069,0,0,0-.984-0.29l-2.157,0a0.743,0.743,0,0,0-.376.082,5.88,5.88,0,0,0-.6,1.155s-0.491.882-1.1,1.923c-1.294,2.2-2.744,2.305-2.742,2.053,0-.568,0-2.84,0-3.522,0-1.224.042-1.686-.66-1.686-0.325,0-.549,0-1.357-0.01a5.989,5.989,0,0,0-2.365.247c-0.331.162-.586,0.523-0.431,0.543a1.651,1.651,0,0,1,1.014.432,2.8,2.8,0,0,1,.288,1.315s-0.009,3.157-.009,3.749c0,0.543-.755.129-1.6-0.762a13.22,13.22,0,0,1-2.856-5c-0.142-.344-0.077-0.52-0.608-0.52l-2.737,0a0.544,0.544,0,0,0-.661.684c2.272,8.59,8.412,10.31,9.314,10.31H156.3Z" transform="translate(-145 -243)"/>
</svg>
