<svg xmlns="http://www.w3.org/2000/svg" width="11" height="18" viewBox="0 0 11 18">
  <defs>
    <style>
      .cls-1 {
        fill: #fff;
        fill-rule: evenodd;
      }
    </style>
  </defs>
  <path id="odnoklasniki" class="cls-1" d="M237.005,251.838a9.049,9.049,0,0,0,2.81-1.207,1.434,1.434,0,0,0-1.527-2.427,5.746,5.746,0,0,1-6.588,0,1.434,1.434,0,0,0-1.527,2.427,9.151,9.151,0,0,0,2.841,1.176l-2.61,2.736a1.433,1.433,0,1,0,2.027,2.027l2.563-2.688,2.563,2.688a1.433,1.433,0,0,0,2.026-2.027l-2.578-2.705M235,248a4.5,4.5,0,1,1,4.5-4.5A4.5,4.5,0,0,1,235,248Zm0-6.5a2,2,0,1,0,2,2A2,2,0,0,0,235,241.5Z" transform="translate(-229.5 -239)"/>
</svg>
