<svg xmlns="http://www.w3.org/2000/svg" width="17.031" height="14" viewBox="0 0 17.031 14">
  <defs>
    <style>
      .cls-1 {
        fill: #fff;
        fill-rule: evenodd;
      }
    </style>
  </defs>
  <path id="twitter" class="cls-1" d="M192.356,255a9.938,9.938,0,0,0,9.94-10.063c0-.154,0-0.305-0.011-0.458a7.177,7.177,0,0,0,1.744-1.83,6.931,6.931,0,0,1-2.006.556,3.538,3.538,0,0,0,1.535-1.957,6.949,6.949,0,0,1-2.218.86,3.467,3.467,0,0,0-2.55-1.118,3.516,3.516,0,0,0-3.494,3.536,3.571,3.571,0,0,0,.091.807,9.887,9.887,0,0,1-7.2-3.7,3.568,3.568,0,0,0,1.082,4.721,3.433,3.433,0,0,1-1.583-.441c0,0.014,0,.029,0,0.044a3.53,3.53,0,0,0,2.8,3.469,3.533,3.533,0,0,1-.92.123,3.468,3.468,0,0,1-.657-0.063,3.5,3.5,0,0,0,3.263,2.456,6.956,6.956,0,0,1-4.338,1.513,7.158,7.158,0,0,1-.834-0.048A9.8,9.8,0,0,0,192.356,255" transform="translate(-187 -241)"/>
</svg>
